<svg width="32" height="32" viewBox="0 0 32 32" fill="none" xmlns="http://www.w3.org/2000/svg">
<path fill-rule="evenodd" clip-rule="evenodd" d="M13.4016 21L12.6886 19.0357L12.2509 18.6849C10.8752 17.582 10 15.8939 10 14C10 10.6863 12.6863 8 16 8C19.3137 8 22 10.6863 22 14C22 15.8939 21.1248 17.582 19.7491 18.6849L19.3115 19.0357L18.5984 21H13.4016ZM12 23H20L21 20.2453C22.8289 18.7792 24 16.5264 24 14C24 9.58172 20.4183 6 16 6C11.5817 6 8 9.58172 8 14C8 16.5264 9.17108 18.7792 11 20.2453L12 23ZM19 26V24H13V26H19Z" fill="white"/>
</svg>
